<?xml version="1.0" encoding="UTF-8"?>
<svg width="9px" height="17px" viewBox="0 0 9 17" version="1.1" xmlns="http://www.w3.org/2000/svg" xmlns:xlink="http://www.w3.org/1999/xlink">
    <!-- Generator: Sketch 64 (93537) - https://sketch.com -->
    <title>chevron copy 8</title>
    <desc>Created with Sketch.</desc>
    <g id="App" stroke="none" stroke-width="1" fill="none" fill-rule="evenodd">
        <g id="Session-View" transform="translate(-219.000000, -515.000000)" fill="#4A4A4A" fill-rule="nonzero">
            <g id="chevron-copy-8" transform="translate(219.000000, 515.000000)">
                <path d="M8.5,8.49991382 C8.5,8.6882748 8.43994214,8.87646351 8.32989706,9.01760497 L3.3300802,16.0764032 C3.15008971,16.3305957 2.8499835,16.5 2.50007326,16.5 L1.71944629,16.5 C1.16940418,16.5 0.719336408,16.0764032 0.719336408,15.558712 C0.719336408,15.3705233 0.779394269,15.1823347 0.889439347,15.0411932 L5.51938768,8.49991382 L0.889439347,1.95880679 C0.779394269,1.81766533 0.719336408,1.62947662 0.719336408,1.44111564 C0.719336408,0.923596802 1.16940418,0.5 1.71944629,0.5 L2.50007326,0.5 C2.8499835,0.5 3.15008971,0.669404274 3.3300802,0.923596802 L8.32989706,7.98239498 C8.43994214,8.12353649 8.5,8.31172515 8.5,8.49991382 Z" id="Path"></path>
            </g>
        </g>
    </g>
</svg>