<svg height="512" viewBox="0 0 512 512" width="512" xmlns="http://www.w3.org/2000/svg"><g id="Flat"><path d="m232 104 56 40-40 40z" fill="#fdc5ca"/><path d="m232 104-24 24-8-40h-16l-8-16h-8l8-24a23.96167 23.96167 0 0 1 7.03-16.97 23.5998 23.5998 0 0 1 3.16-2.65015 23.859 23.859 0 0 1 13.81-4.37985h5.26a24.00278 24.00278 0 0 1 23.28 18.17993 38.53286 38.53286 0 0 1 -2.91 26.56007l-1.63 3.26z" fill="#fdc5ca"/><path d="m229.69 51.53a38.49068 38.49068 0 0 1 -4.06 17.21l-1.63 3.26a108.512 108.512 0 0 1 -36.9-41.8l-.91-1.82007a23.859 23.859 0 0 1 13.81-4.37993h5.26a24.00278 24.00278 0 0 1 23.28 18.17993 38.54406 38.54406 0 0 1 1.15 9.35007z" fill="#ba8b5d"/><path d="m237.65642 28.58589a18.02913 18.02913 0 0 1 22.05172 13.955 72.278 72.278 0 0 0 19.76615 36.93339l8.52571 8.52572-32.36662-6.47332a39.35076 39.35076 0 0 1 -14.11052-5.84477l-2.60986-1.73991a33.4899 33.4899 0 0 1 -14.913-27.86525 18.02915 18.02915 0 0 1 13.65642-17.49086z" fill="#9f764a"/><path d="m368 416-16 8-72-64-29.17-54.17993-13.25-24.61007-14.32 7.16016-47.26 23.62984 24 24 8 56-16 8-56-88a275.07139 275.07139 0 0 1 59.84-69.85986l12.16-10.14014v-24h48l2.13.8501a48.98883 48.98883 0 0 1 29.87 55.1499 267.32417 267.32417 0 0 1 23.02 67.08008l.98 4.91992a84.26513 84.26513 0 0 1 50.45 57.79z" fill="#68737f"/><path d="m237.58 281.21-14.32 7.16016-5.75945-10.69067a16.00333 16.00333 0 0 1 6.49945-21.67949z" fill="#4f5761"/><path d="m400 432-32 56h-40a25.92511 25.92511 0 0 1 14.31-23.16016l1.69-.83984 3.2-16 4.8-24 16-8 17.67 8.83008z" fill="#529ddf"/><path d="m368 464h-24l3.2-16h4.8a15.99552 15.99552 0 0 1 16 16z" fill="#4384c3"/><path d="m240 424-72 40a30.878 30.878 0 0 1 1.92-30.87988l22.08-33.12012 16-8z" fill="#529ddf"/><path d="m200 168-13.83706-10.37779a24 24 0 0 1 -5.56921-32.51281l10.93937-16.409a28.52089 28.52089 0 0 1 23.73082-12.7004 28.52089 28.52089 0 0 1 28.23424 24.48743l12.50184 87.51257h-48z" fill="#e04446"/><path d="m200 144 5.58732-33.5239a17.32418 17.32418 0 0 1 17.08846-14.4761 17.32418 17.32418 0 0 1 17.32422 17.32418v4.54312a17.3243 17.3243 0 0 1 -.51726 4.20173l-15.48274 61.93097h-24l-56-16h-8l-24-8 8-32 32 8v8h48l8 8" fill="#fdc5ca"/><path d="m400 432-32 56h-40a25.83584 25.83584 0 0 1 5.54-16h25.17l4.57-8 3.5-6.12012 18.89-33.0498z" fill="#d4e4f0"/><path d="m368 464h-4.72l3.5-6.12012a15.76627 15.76627 0 0 1 1.22 6.12012z" fill="#c1d7e6"/><path d="m240 424-72 40a30.67355 30.67355 0 0 1 -3.12-16.57007l63.35-35.19993z" fill="#d4e4f0"/></g></svg>