<svg width="36px" height="36px" viewBox="0 0 36 36" version="1.1" xmlns="http://www.w3.org/2000/svg" xmlns:xlink="http://www.w3.org/1999/xlink">
    <g id="App" stroke="none" stroke-width="1" fill="none" fill-rule="evenodd">
        <g id="Session-Live-View" transform="translate(-276.000000, -85.000000)" fill="#6A92FF" fill-rule="nonzero">
            <g id="arrow" transform="translate(276.000000, 85.000000)">
                <path d="M18,0 C8.0757,0 0,8.0757 0,18 C0,27.9243 8.0757,36 18,36 C27.9243,36 36,27.9243 36,18 C36,8.0757 27.9243,0 18,0 Z M25.2657759,19.3304305 L20.8616246,24.9888476 C20.4899314,25.4673664 19.9579971,25.7142857 19.4252369,25.7142857 C18.9948988,25.7142857 18.5604307,25.5529771 18.2052572,25.2249529 C17.4123118,24.4923055 17.3148455,23.1937263 17.9880232,22.3277064 L19.7572828,20.0558686 L12.1697858,20.0558686 C11.1290448,20.0558686 10.2857143,19.1357788 10.2857143,18.0003104 C10.2857143,16.8648421 11.1290448,15.9447523 12.1697858,15.9447523 L19.7572828,15.9447523 L17.9880232,13.6729145 C17.3148455,12.8068946 17.4123118,11.5101177 18.2052572,10.7738656 C18.9982027,10.0394159 20.1876209,10.1457534 20.8616246,11.0117733 L25.2657759,16.6701904 C25.863789,17.4361809 25.863789,18.5626376 25.2657759,19.3304305 Z" id="Shape"></path>
            </g>
        </g>
    </g>
</svg>