<?xml version="1.0"?>
<svg xmlns="http://www.w3.org/2000/svg" xmlns:xlink="http://www.w3.org/1999/xlink" version="1.1" id="Layer_1" x="0px" y="0px" viewBox="0 0 512 512" style="enable-background:new 0 0 512 512;" xml:space="preserve" width="512px" height="512px"><g><g>
	<g>
		<path d="M256,0C114.615,0,0,114.615,0,256s114.615,256,256,256s256-114.615,256-256S397.385,0,256,0z M227.625,324.364    c0,16.656-13.502,30.158-30.158,30.158s-30.158-13.502-30.158-30.158V187.636c0-16.656,13.502-30.158,30.158-30.158    s30.158,13.502,30.158,30.158V324.364z M342.48,324.364c0,16.656-13.502,30.158-30.158,30.158s-30.158-13.502-30.158-30.158    V187.636c0-16.656,13.502-30.158,30.158-30.158s30.158,13.502,30.158,30.158V324.364z" data-original="#000000" class="active-path" data-old_color="#000000" fill="#FFCE00"/>
	</g>
</g></g> </svg>
