<?xml version="1.0"?>
<svg xmlns="http://www.w3.org/2000/svg" xmlns:xlink="http://www.w3.org/1999/xlink" version="1.1" id="Layer_1" x="0px" y="0px" viewBox="0 0 512 512" style="enable-background:new 0 0 512 512;" xml:space="preserve" width="512px" height="512px" class=""><g><g>
	<g>
		<path d="M429.089,227.916c-30.65,0-55.497,24.847-55.497,55.497c0,64.842-52.751,117.593-117.592,117.593    s-117.593-52.751-117.593-117.593c0-53.525,35.949-98.808,84.969-112.984v6.411c0,15.605,8.396,30.144,21.911,37.943    c13.59,7.843,30.304,7.796,43.816-0.012l115.118-66.516c13.504-7.803,21.891-22.338,21.891-37.932    c0-15.596-8.389-30.13-21.893-37.933L289.103,5.875c-13.532-7.821-30.247-7.842-43.815-0.011    c-13.516,7.801-21.911,22.339-21.911,37.945v13.357C112.732,73.045,27.413,168.445,27.413,283.413    C27.413,409.457,129.958,512,256,512s228.586-102.544,228.586-228.587C484.587,252.763,459.739,227.916,429.089,227.916z" data-original="#000000" class="active-path" data-old_color="#000000" fill="#6A92FF"/>
	</g>
</g></g> </svg>
