<svg id="Capa_1" enable-background="new 0 0 512 512" height="512" viewBox="0 0 512 512" width="512" xmlns="http://www.w3.org/2000/svg"><g><g><g><g><g><g><g><circle cx="256" cy="256" fill="#fe6a16" r="256"/></g></g></g></g></g></g><path d="m84.744 308.31 201.877 201.877c113.176-13.49 203.685-100.816 221.992-212.443l-78.422-79.196-128.229-127.455z" fill="#e53b00"/><g><g><path d="m377.607 218.548h52.585v164.266h-52.585z" fill="#ffce00"/></g><g><path d="m298.522 246.696h52.585v136.118h-52.585z" fill="#ffce00"/></g><g><path d="m219.438 293.844h52.585v88.971h-52.585z" fill="#ffce00"/></g></g><g><g><path d="m84.744 308.31c-11.918-11.918-11.918-31.242 0-43.16l79.032-79.032 43.16 43.16-79.032 79.032c-11.918 11.919-31.241 11.919-43.16 0z" fill="#333940"/></g><g><path d="m84.471 308.023c.093.095.179.193.273.287 11.918 11.918 31.242 11.918 43.16 0l79.032-79.032-21.86-21.86z" fill="#23272b"/></g><g><ellipse cx="232.915" cy="160.14" fill="#555a66" rx="97.648" ry="97.648" transform="matrix(.707 -.707 .707 .707 -45.017 211.599)"/></g><g><path d="m301.962 91.093c-.094-.094-.193-.18-.287-.273l-138.081 138.08c.094.094.179.193.273.287 38.134 38.134 99.961 38.134 138.094 0 38.135-38.133 38.135-99.96.001-138.094z" fill="#333940"/></g><g><ellipse cx="232.915" cy="160.14" fill="#b5efff" rx="67.258" ry="67.258" transform="matrix(.707 -.707 .707 .707 -45.017 211.599)"/></g><g><path d="m280.186 112.308-95.103 95.103c.093.094.179.193.273.287 26.266 26.266 68.851 26.266 95.117 0s26.266-68.851 0-95.117c-.094-.094-.193-.18-.287-.273z" fill="#80dbff"/></g></g></g></svg>